# xmcd CD database file
# Copyright (C) 1997 Ti Kan
#
# Track frame offsets:
#  150
#  21647
#  41250
#  59270
#  79227
#  92625
#  115892
#  140165
#  167517
#  186412
#  195652
#  227167
#  244075
#  262795
#  287017
#
# Disc length: 4068 seconds
#
# Revision: 1
# Processed by: cddbd v1.4b41PL1 Copyright (c) Steve Scherf et al.
# Submitted via: CDWizzard Release:4.31
#
DISCID=d10fe20f
DTITLE=Robert Pete Williams - I'm Blue As A Man Can Be
DYEAR=1900
DGENRE=
TTITLE0=Pardon Denied Again
TTITLE1=This Wild Old Life
TTITLE2=Just Tippin' In
TTITLE3=Louise
TTITLE4=Church On Fire (No. 2)
TTITLE5=Texas Blues
TTITLE6=I'm Blue As A Man Can Be
TTITLE7=Up And Down Blues
TTITLE8=So Much Is Happenin' In This Wicked World
TTITLE9=Come Here Baby
TTITLE10=Levee Camp Blues
TTITLE11=Two Wings
TTITLE12=Angola Special
TTITLE13=Motherless Children Have A Hard Time
TTITLE14=Please Lord, Help Me On My Way
EXTD=CD 394\n\nRecorded by Dr. Harry Oster at Angola State Penitentiary, 
EXTD=Louisiana in 1959 and 1960
EXTT0=
EXTT1=
EXTT2=
EXTT3=
EXTT4=
EXTT5=
EXTT6=
EXTT7=
EXTT8=
EXTT9=
EXTT10=
EXTT11=
EXTT12=
EXTT13=
EXTT14=
PLAYORDER=
